<svg xmlns="http://www.w3.org/2000/svg" width="1839" height="2730" viewBox="0 0 1839 2730">
  <g id="Group_29" data-name="Group 29" transform="translate(-1799 -2083)">
    <line id="Line_3" data-name="Line 3" y2="1676" transform="translate(1959 4043.5) rotate(-90)" fill="none" stroke="#b5b5b5" stroke-width="5"/>
    <line id="Line_4" data-name="Line 4" y2="1676" transform="translate(1959 3721.5) rotate(-90)" fill="none" stroke="#b5b5b5" stroke-width="5"/>
    <line id="Line_5" data-name="Line 5" y2="1676" transform="translate(1959 3399.5) rotate(-90)" fill="none" stroke="#b5b5b5" stroke-width="5"/>
    <line id="Line_9" data-name="Line 9" y2="1676" transform="translate(1959 3078.5) rotate(-90)" fill="none" stroke="#b5b5b5" stroke-width="5"/>
    <line id="Line_7" data-name="Line 7" y2="1676" transform="translate(1959 2756.5) rotate(-90)" fill="none" stroke="#b5b5b5" stroke-width="5"/>
    <line id="Line_8" data-name="Line 8" y2="1676" transform="translate(1959 2434.5) rotate(-90)" fill="none" stroke="#b5b5b5" stroke-width="5"/>
    <text id="Benin" transform="translate(1975 4393) rotate(90)" fill="#fff" font-size="60" font-family="Helvetica" letter-spacing="0.1em"><tspan x="0" y="0">Benin</tspan></text>
    <text id="Burkina_Faso" data-name="Burkina Faso" transform="translate(2109 4393) rotate(90)" fill="#fff" font-size="60" font-family="Helvetica" letter-spacing="0.1em"><tspan x="0" y="0">Burkina Faso</tspan></text>
    <text id="Burundi" transform="translate(2512 4393) rotate(90)" fill="#fff" font-size="60" font-family="Helvetica" letter-spacing="0.1em"><tspan x="0" y="0">Burundi</tspan></text>
    <text id="Chad" transform="translate(2781 4393) rotate(90)" fill="#fff" font-size="60" font-family="Helvetica" letter-spacing="0.1em"><tspan x="0" y="0">Chad</tspan></text>
    <text id="Ghana" transform="translate(2244 4393) rotate(90)" fill="#fff" font-size="60" font-family="Helvetica" letter-spacing="0.1em"><tspan x="0" y="0">Ghana</tspan></text>
    <text id="Ethiopia" transform="translate(2378 4393) rotate(90)" fill="#fff" font-size="60" font-family="Helvetica" letter-spacing="0.1em"><tspan x="0" y="0">Ethiopia</tspan></text>
    <text id="Lesotho" transform="translate(2647 4393) rotate(90)" fill="#fff" font-size="60" font-family="Helvetica" letter-spacing="0.1em"><tspan x="0" y="0">Lesotho</tspan></text>
    <text id="Liberia" transform="translate(2915 4393) rotate(90)" fill="#fff" font-size="60" font-family="Helvetica" letter-spacing="0.1em"><tspan x="0" y="0">Liberia</tspan></text>
    <text id="Malawi" transform="translate(3050 4393) rotate(90)" fill="#fff" font-size="60" font-family="Helvetica" letter-spacing="0.1em"><tspan x="0" y="0">Malawi</tspan></text>
    <text id="Rwanda" transform="translate(3184 4393) rotate(90)" fill="#fff" font-size="60" font-family="Helvetica" letter-spacing="0.1em"><tspan x="0" y="0">Rwanda</tspan></text>
    <text id="Kenya" transform="translate(3318 4393) rotate(90)" fill="#fff" font-size="60" font-family="Helvetica" letter-spacing="0.1em"><tspan x="0" y="0">Kenya</tspan></text>
    <text id="Uganda" transform="translate(3453 4393) rotate(90)" fill="#fff" font-size="60" font-family="Helvetica" letter-spacing="0.1em"><tspan x="0" y="0">Uganda</tspan></text>
    <text id="Zambia" transform="translate(3587 4393) rotate(90)" fill="#fff" font-size="60" font-family="Helvetica" letter-spacing="0.1em"><tspan x="0" y="0">Zambia</tspan></text>
    <text id="_10_" data-name="10%" transform="translate(1799 4060)" fill="#fff" font-size="50" font-family="Helvetica-Bold, Helvetica" font-weight="700"><tspan x="0" y="0">10%</tspan></text>
    <text id="_20_" data-name="20%" transform="translate(1799 3738)" fill="#fff" font-size="50" font-family="Helvetica-Bold, Helvetica" font-weight="700"><tspan x="0" y="0">20%</tspan></text>
    <text id="_30_" data-name="30%" transform="translate(1799 3416)" fill="#fff" font-size="50" font-family="Helvetica-Bold, Helvetica" font-weight="700"><tspan x="0" y="0">30%</tspan></text>
    <text id="_40_" data-name="40%" transform="translate(1799 3095)" fill="#fff" font-size="50" font-family="Helvetica-Bold, Helvetica" font-weight="700"><tspan x="0" y="0">40%</tspan></text>
    <text id="_50_" data-name="50%" transform="translate(1799 2773)" fill="#fff" font-size="50" font-family="Helvetica-Bold, Helvetica" font-weight="700"><tspan x="0" y="0">50%</tspan></text>
    <text id="_60_" data-name="60%" transform="translate(1799 2451)" fill="#fff" font-size="50" font-family="Helvetica-Bold, Helvetica" font-weight="700"><tspan x="0" y="0">60%</tspan></text>
    <g id="benin-2" data-name="benin" transform="translate(-562 6361) rotate(-90)">
      <rect id="Rectangle_30" data-name="Rectangle 30" width="1399" height="78" transform="translate(1996 2517)" fill="#9100ac"/>
      <rect id="Rectangle_31" data-name="Rectangle 31" width="1287" height="78" transform="translate(1996 2517)" fill="#a562de"/>
      <rect id="Rectangle_32" data-name="Rectangle 32" width="1234" height="78" transform="translate(1996 2517)" fill="#ffe943"/>
    </g>
    <g id="ghana-2" data-name="ghana" transform="translate(-295 6363) rotate(-90)">
      <rect id="Rectangle_30-2" data-name="Rectangle 30" width="2144" height="78" transform="translate(1996 2517)" fill="#9100ac"/>
      <rect id="Rectangle_31-2" data-name="Rectangle 31" width="2069" height="78" transform="translate(1996 2517)" fill="#a562de"/>
      <rect id="Rectangle_32-2" data-name="Rectangle 32" width="2043" height="78" transform="translate(1996 2517)" fill="#ffe943"/>
    </g>
    <g id="brundi" transform="translate(-28 6363) rotate(-90)">
      <rect id="Rectangle_30-3" data-name="Rectangle 30" width="145" height="78" transform="translate(1996 2517)" fill="#9100ac"/>
      <rect id="Rectangle_31-3" data-name="Rectangle 31" width="109" height="78" transform="translate(1996 2517)" fill="#a562de"/>
      <rect id="Rectangle_32-3" data-name="Rectangle 32" width="70" height="78" transform="translate(1996 2517)" fill="#ffe943"/>
    </g>
    <g id="lesotho-2" data-name="lesotho" transform="translate(106 6363) rotate(-90)">
      <rect id="Rectangle_30-4" data-name="Rectangle 30" width="1236" height="78" transform="translate(1996 2517)" fill="#9100ac"/>
      <rect id="Rectangle_31-4" data-name="Rectangle 31" width="1144" height="78" transform="translate(1996 2517)" fill="#a562de"/>
      <rect id="Rectangle_32-4" data-name="Rectangle 32" width="1072" height="78" transform="translate(1996 2517)" fill="#ffe943"/>
    </g>
    <g id="chad-2" data-name="chad" transform="translate(239 6361) rotate(-90)">
      <rect id="Rectangle_30-5" data-name="Rectangle 30" width="406" height="78" transform="translate(1996 2517)" fill="#9100ac"/>
      <rect id="Rectangle_31-5" data-name="Rectangle 31" width="373" height="78" transform="translate(1996 2517)" fill="#a562de"/>
      <rect id="Rectangle_32-5" data-name="Rectangle 32" width="330" height="78" transform="translate(1996 2517)" fill="#ffe943"/>
    </g>
    <g id="liberia-2" data-name="liberia" transform="translate(373 6361) rotate(-90)">
      <rect id="Rectangle_30-6" data-name="Rectangle 30" width="1042" height="78" transform="translate(1996 2517)" fill="#9100ac"/>
      <rect id="Rectangle_31-6" data-name="Rectangle 31" width="929" height="78" transform="translate(1996 2517)" fill="#a562de"/>
      <rect id="Rectangle_32-6" data-name="Rectangle 32" width="832" height="78" transform="translate(1996 2517)" fill="#ffe943"/>
    </g>
    <g id="malawi-2" data-name="malawi" transform="translate(506 6361) rotate(-90)">
      <rect id="Rectangle_30-7" data-name="Rectangle 30" width="375" height="78" transform="translate(1996 2517)" fill="#9100ac"/>
      <rect id="Rectangle_31-7" data-name="Rectangle 31" width="353" height="78" transform="translate(1996 2517)" fill="#a562de"/>
      <rect id="Rectangle_32-7" data-name="Rectangle 32" width="337" height="78" transform="translate(1996 2517)" fill="#ffe943"/>
    </g>
    <g id="rwanda-2" data-name="rwanda" transform="translate(640 6361) rotate(-90)">
      <rect id="Rectangle_30-8" data-name="Rectangle 30" width="406" height="78" transform="translate(1996 2517)" fill="#9100ac"/>
      <rect id="Rectangle_31-8" data-name="Rectangle 31" width="384" height="78" transform="translate(1996 2517)" fill="#a562de"/>
      <rect id="Rectangle_32-8" data-name="Rectangle 32" width="368" height="78" transform="translate(1996 2517)" fill="#ffe943"/>
    </g>
    <g id="kenya-2" data-name="kenya" transform="translate(773 6361) rotate(-90)">
      <rect id="Rectangle_30-9" data-name="Rectangle 30" width="1499" height="78" transform="translate(1996 2517)" fill="#9100ac"/>
      <rect id="Rectangle_31-9" data-name="Rectangle 31" width="1444" height="78" transform="translate(1996 2517)" fill="#a562de"/>
      <rect id="Rectangle_32-9" data-name="Rectangle 32" width="1356" height="78" transform="translate(1996 2517)" fill="#ffe943"/>
    </g>
    <g id="uganda-2" data-name="uganda" transform="translate(907 6361) rotate(-90)">
      <rect id="Rectangle_30-10" data-name="Rectangle 30" width="824" height="78" transform="translate(1996 2517)" fill="#9100ac"/>
      <rect id="Rectangle_31-10" data-name="Rectangle 31" width="803" height="78" transform="translate(1996 2517)" fill="#a562de"/>
      <rect id="Rectangle_32-10" data-name="Rectangle 32" width="770" height="78" transform="translate(1996 2517)" fill="#ffe943"/>
    </g>
    <g id="zambia-2" data-name="zambia" transform="translate(1040 6361) rotate(-90)">
      <rect id="Rectangle_30-11" data-name="Rectangle 30" width="1124" height="78" transform="translate(1996 2517)" fill="#9100ac"/>
      <rect id="Rectangle_31-11" data-name="Rectangle 31" width="1103" height="78" transform="translate(1996 2517)" fill="#a562de"/>
      <rect id="Rectangle_32-11" data-name="Rectangle 32" width="1070" height="78" transform="translate(1996 2517)" fill="#ffe943"/>
    </g>
    <g id="ethiopia-2" data-name="ethiopia" transform="translate(-524 6361) rotate(-90)">
      <rect id="Rectangle_41" data-name="Rectangle 41" width="700" height="78" transform="translate(1996 2880)" fill="#9100ac"/>
      <rect id="Rectangle_40" data-name="Rectangle 40" width="644" height="78" transform="translate(1996 2880)" fill="#a562de"/>
      <rect id="Rectangle_39" data-name="Rectangle 39" width="591" height="78" transform="translate(1996 2880)" fill="#ffe943"/>
    </g>
    <g id="burkina" transform="translate(-544 6361) rotate(-90)">
      <rect id="Rectangle_33" data-name="Rectangle 33" width="1096" height="78" transform="translate(1996 2633)" fill="#ffe943"/>
      <rect id="Rectangle_34" data-name="Rectangle 34" width="1019" height="78" transform="translate(1996 2633)" fill="#9100ac"/>
      <rect id="Rectangle_35" data-name="Rectangle 35" width="966" height="78" transform="translate(1996 2633)" fill="#a562de"/>
    </g>
    <line id="Line_10" data-name="Line 10" y2="1680.5" transform="translate(1955 4364.5) rotate(-90)" fill="none" stroke="#707070" stroke-linecap="square" stroke-width="5"/>
    <g id="Rectangle_42" data-name="Rectangle 42" transform="translate(3332 2083)" fill="#ffe943" stroke="#707070" stroke-width="1">
      <rect width="143" height="60" stroke="none"/>
      <rect x="0.5" y="0.5" width="142" height="59" fill="none"/>
    </g>
    <g id="Rectangle_43" data-name="Rectangle 43" transform="translate(3333 2194)" fill="#a562de" stroke="#707070" stroke-width="1">
      <rect width="143" height="60" stroke="none"/>
      <rect x="0.5" y="0.5" width="142" height="59" fill="none"/>
    </g>
    <g id="Rectangle_44" data-name="Rectangle 44" transform="translate(3334 2305)" fill="#9114ac" stroke="#707070" stroke-width="1">
      <rect width="143" height="60" stroke="none"/>
      <rect x="0.5" y="0.5" width="142" height="59" fill="none"/>
    </g>
    <text id="_2018" data-name="2018" transform="translate(3506 2124)" fill="#fff" font-size="40" font-family="Helvetica-Bold, Helvetica" font-weight="700"><tspan x="0" y="0">2018</tspan></text>
    <text id="_2019" data-name="2019" transform="translate(3507 2235)" fill="#fff" font-size="40" font-family="Helvetica-Bold, Helvetica" font-weight="700"><tspan x="0" y="0">2019</tspan></text>
    <text id="_2020" data-name="2020" transform="translate(3508 2346)" fill="#fff" font-size="40" font-family="Helvetica-Bold, Helvetica" font-weight="700"><tspan x="0" y="0">2020</tspan></text>
  </g>
</svg>
